<?xml version="1.0" standalone="no"?>
<!DOCTYPE svg PUBLIC "-//W3C//DTD SVG 20010904//EN"
 "http://www.w3.org/TR/2001/REC-SVG-20010904/DTD/svg10.dtd">
<svg version="1.0" xmlns="http://www.w3.org/2000/svg"
 width="1600.000000pt" height="1600.000000pt" viewBox="0 0 1600.000000 1600.000000"
 preserveAspectRatio="xMidYMid meet">
<metadata>
Created by potrace 1.14, written by Peter Selinger 2001-2017
</metadata>
<g transform="translate(0.000000,1600.000000) scale(0.100000,-0.100000)"
fill="#000000" stroke="none">
<path d="M2900 11660 c-257 -31 -479 -195 -590 -433 -60 -129 -88 -311 -70
-449 22 -158 57 -210 618 -896 184 -225 212 -274 212 -364 0 -88 -65 -160
-159 -178 -35 -6 -500 -10 -1317 -10 l-1264 0 0 -330 0 -330 1548 2 1547 3 95
33 c52 18 127 51 165 74 95 56 221 184 274 279 117 210 140 471 56 647 -22 47
-153 235 -354 510 -175 241 -329 461 -341 490 -43 101 2 211 110 268 33 18 79
19 938 22 l902 2 0 -1165 0 -1165 430 0 430 0 0 1165 0 1165 720 0 720 0 -2
333 -3 332 -2300 1 c-1265 1 -2329 -2 -2365 -6z"/>
<path d="M7955 10183 c-263 -819 -480 -1494 -483 -1501 -3 -10 81 -12 413 -10
l417 3 27 75 c15 41 67 189 115 328 l89 252 635 -2 634 -3 67 -190 c37 -104
89 -252 115 -327 l48 -138 415 0 415 0 -6 23 c-3 12 -234 686 -514 1497 l-508
1475 -700 3 -700 2 -479 -1487z m1571 -165 c5 -17 -18 -18 -390 -18 -218 0
-396 3 -396 7 0 5 88 273 197 598 l196 590 194 -580 c106 -319 196 -588 199
-597z"/>
<path d="M11570 10170 l0 -1500 450 0 450 0 2 561 3 560 150 -142 c585 -555
919 -865 972 -907 19 -13 63 -35 99 -48 l65 -24 954 0 955 0 0 330 0 330 -619
0 c-622 0 -687 3 -759 37 -31 15 -488 461 -480 468 2 1 28 10 58 20 171 55
360 198 462 348 56 82 114 208 140 302 31 115 31 345 0 459 -105 383 -417 652
-807 696 -55 6 -483 10 -1092 10 l-1003 0 0 -1500z m1852 819 c109 -23 208
-100 249 -192 35 -79 33 -193 -4 -269 -49 -100 -151 -170 -274 -188 -37 -5
-260 -10 -495 -10 l-428 0 0 335 0 335 450 0 c294 0 467 -4 502 -11z"/>
<path d="M9000 5870 l0 -1500 450 0 450 0 0 560 c0 308 3 560 6 560 4 0 95
-85 203 -188 516 -493 889 -838 946 -874 98 -61 9 -58 1611 -58 1596 0 1532
-2 1686 58 218 84 391 279 453 507 22 79 31 294 16 366 -22 107 -67 173 -415
608 -364 456 -382 484 -367 568 10 52 53 126 89 151 56 41 82 42 825 42 l717
0 0 330 0 331 -1032 -3 -1033 -3 -70 -23 c-175 -59 -320 -162 -417 -297 -100
-139 -148 -290 -148 -470 0 -175 37 -268 167 -412 353 -392 647 -737 671 -787
50 -103 5 -225 -103 -284 -27 -16 -113 -17 -955 -17 -509 0 -942 4 -962 8 -63
13 -151 82 -245 190 -48 56 -130 146 -182 200 -52 53 -92 98 -90 100 2 1 37
13 78 27 170 56 352 199 460 360 120 180 173 392 151 606 -41 399 -313 710
-711 816 -84 22 -87 22 -1166 25 l-1083 4 0 -1501z m1821 790 c89 -13 150 -40
207 -94 75 -70 97 -123 97 -231 0 -80 -3 -97 -29 -148 -34 -66 -75 -106 -144
-141 -85 -43 -129 -46 -602 -46 l-450 0 0 335 0 335 428 0 c235 0 457 -5 493
-10z"/>
<path d="M474 7313 c3 -10 228 -684 499 -1498 l494 -1480 283 0 284 0 315 912
c174 502 318 907 322 900 4 -6 144 -410 312 -897 168 -487 309 -893 312 -902
7 -17 30 -18 289 -18 l281 0 498 1493 c273 820 497 1495 497 1500 0 4 -194 6
-432 5 l-431 -3 -215 -645 -215 -645 -216 648 -216 647 -469 -2 -469 -3 -228
-635 c-126 -349 -230 -639 -232 -645 -2 -5 -100 280 -219 635 l-215 645 -417
3 c-395 2 -417 1 -412 -15z"/>
<path d="M5776 7158 c-30 -95 -244 -760 -476 -1478 -231 -718 -423 -1315 -426
-1327 l-6 -23 399 0 398 0 99 283 c54 155 107 306 118 335 l19 52 633 0 633 0
88 -252 c48 -139 101 -290 117 -335 l30 -83 414 0 c228 0 414 3 414 7 0 5
-224 680 -497 1500 l-498 1493 -702 0 -702 0 -55 -172z m1150 -1470 c5 -17
-18 -18 -390 -18 -218 0 -396 3 -396 7 0 5 88 273 197 598 l196 590 194 -580
c106 -319 196 -588 199 -597z"/>
</g>
</svg>
